<svg width="36" height="36" viewBox="0 0 36 36" fill="none" xmlns="http://www.w3.org/2000/svg">
<rect width="36" height="36" rx="18" fill="current"/>
<path d="M17.6538 25.9999C18.4571 25.9999 19.1083 25.3487 19.1083 24.5454C19.1083 23.742 18.4571 23.0908 17.6538 23.0908C16.8504 23.0908 16.1992 23.742 16.1992 24.5454C16.1992 25.3487 16.8504 25.9999 17.6538 25.9999Z" fill="black"/>
<path d="M17.6545 10C15.088 10 13 12.088 13 14.6545C13 15.2972 13.521 15.8182 14.1636 15.8182C14.8063 15.8182 15.3273 15.2972 15.3273 14.6545C15.3273 13.3713 16.3713 12.3273 17.6545 12.3273C18.9378 12.3273 19.9818 13.3713 19.9818 14.6545C19.9818 15.9378 18.9378 16.9818 17.6545 16.9818C17.0119 16.9818 16.4909 17.5028 16.4909 18.1455V21.0545C16.4909 21.6972 17.0119 22.2182 17.6545 22.2182C18.2972 22.2182 18.8182 21.6972 18.8182 21.0545V19.1618C20.8235 18.6438 22.3091 16.8194 22.3091 14.6545C22.3091 12.088 20.2211 10 17.6545 10Z" fill="black"/>
</svg>
